<mxfile host="app.diagrams.net" agent="Mozilla/5.0 (X11; Ubuntu; Linux x86_64; rv:131.0) Gecko/20100101 Firefox/131.0" version="24.8.3">
  <diagram name="Page-1" id="uqv7fCo5bTJ5ZhZfO4SZ">
    <mxGraphModel dx="2537" dy="825" grid="1" gridSize="10" guides="1" tooltips="1" connect="1" arrows="1" fold="1" page="1" pageScale="1" pageWidth="850" pageHeight="850" math="0" shadow="0">
      <root>
        <mxCell id="0" />
        <mxCell id="1" parent="0" />
        <mxCell id="o858JBSHndgNJicVqMe8-1" value="Sender" style="rounded=1;whiteSpace=wrap;html=1;strokeWidth=3;fontSize=18;fontStyle=1" parent="1" vertex="1">
          <mxGeometry x="410" y="480" width="120" height="80" as="geometry" />
        </mxCell>
        <mxCell id="o858JBSHndgNJicVqMe8-11" style="edgeStyle=orthogonalEdgeStyle;rounded=0;orthogonalLoop=1;jettySize=auto;html=1;entryX=1;entryY=0.5;entryDx=0;entryDy=0;strokeWidth=2;jumpStyle=arc;jumpSize=10;" parent="1" source="o858JBSHndgNJicVqMe8-2" target="o858JBSHndgNJicVqMe8-4" edge="1">
          <mxGeometry relative="1" as="geometry" />
        </mxCell>
        <mxCell id="o858JBSHndgNJicVqMe8-2" value="Receiver" style="rounded=1;whiteSpace=wrap;html=1;strokeWidth=3;fontSize=18;fontStyle=1" parent="1" vertex="1">
          <mxGeometry x="410" y="640" width="120" height="80" as="geometry" />
        </mxCell>
        <mxCell id="o858JBSHndgNJicVqMe8-9" style="edgeStyle=orthogonalEdgeStyle;rounded=0;orthogonalLoop=1;jettySize=auto;html=1;exitX=1;exitY=0.5;exitDx=0;exitDy=0;strokeWidth=2;jumpStyle=arc;jumpSize=10;" parent="1" source="o858JBSHndgNJicVqMe8-3" target="o858JBSHndgNJicVqMe8-1" edge="1">
          <mxGeometry relative="1" as="geometry" />
        </mxCell>
        <mxCell id="o858JBSHndgNJicVqMe8-19" style="edgeStyle=orthogonalEdgeStyle;rounded=0;orthogonalLoop=1;jettySize=auto;html=1;exitX=0.75;exitY=0;exitDx=0;exitDy=0;entryX=1;entryY=0.75;entryDx=0;entryDy=0;strokeWidth=2;jumpStyle=arc;jumpSize=10;" parent="1" source="o858JBSHndgNJicVqMe8-3" target="o858JBSHndgNJicVqMe8-7" edge="1">
          <mxGeometry relative="1" as="geometry" />
        </mxCell>
        <mxCell id="JRmdhpunygueFMFv0M05-16" style="edgeStyle=orthogonalEdgeStyle;rounded=0;orthogonalLoop=1;jettySize=auto;html=1;fontStyle=0;strokeWidth=2;" edge="1" parent="1" source="o858JBSHndgNJicVqMe8-3" target="o858JBSHndgNJicVqMe8-5">
          <mxGeometry relative="1" as="geometry" />
        </mxCell>
        <mxCell id="o858JBSHndgNJicVqMe8-3" value="Composer" style="rounded=1;whiteSpace=wrap;html=1;strokeWidth=3;fontSize=18;fontStyle=1" parent="1" vertex="1">
          <mxGeometry x="50" y="480" width="120" height="80" as="geometry" />
        </mxCell>
        <mxCell id="o858JBSHndgNJicVqMe8-12" style="edgeStyle=orthogonalEdgeStyle;rounded=0;orthogonalLoop=1;jettySize=auto;html=1;strokeWidth=2;jumpStyle=arc;jumpSize=10;exitX=0;exitY=0.75;exitDx=0;exitDy=0;" parent="1" source="o858JBSHndgNJicVqMe8-4" target="JRmdhpunygueFMFv0M05-1" edge="1">
          <mxGeometry relative="1" as="geometry">
            <Array as="points">
              <mxPoint x="20" y="700" />
              <mxPoint x="20" y="790" />
            </Array>
          </mxGeometry>
        </mxCell>
        <mxCell id="o858JBSHndgNJicVqMe8-20" style="edgeStyle=orthogonalEdgeStyle;rounded=0;orthogonalLoop=1;jettySize=auto;html=1;exitX=0.75;exitY=0;exitDx=0;exitDy=0;entryX=1;entryY=0.25;entryDx=0;entryDy=0;strokeWidth=2;jumpStyle=arc;jumpSize=10;" parent="1" source="o858JBSHndgNJicVqMe8-4" target="o858JBSHndgNJicVqMe8-7" edge="1">
          <mxGeometry relative="1" as="geometry">
            <Array as="points">
              <mxPoint x="140" y="620" />
              <mxPoint x="230" y="620" />
              <mxPoint x="230" y="160" />
            </Array>
          </mxGeometry>
        </mxCell>
        <mxCell id="JRmdhpunygueFMFv0M05-14" style="edgeStyle=orthogonalEdgeStyle;rounded=0;orthogonalLoop=1;jettySize=auto;html=1;exitX=0;exitY=0.5;exitDx=0;exitDy=0;strokeWidth=2;endArrow=oval;endFill=1;" edge="1" parent="1" source="o858JBSHndgNJicVqMe8-4">
          <mxGeometry relative="1" as="geometry">
            <mxPoint x="-190" y="680" as="targetPoint" />
          </mxGeometry>
        </mxCell>
        <mxCell id="JRmdhpunygueFMFv0M05-18" style="edgeStyle=orthogonalEdgeStyle;rounded=0;orthogonalLoop=1;jettySize=auto;html=1;exitX=0;exitY=0.25;exitDx=0;exitDy=0;entryX=0.75;entryY=1;entryDx=0;entryDy=0;strokeWidth=2;" edge="1" parent="1" source="o858JBSHndgNJicVqMe8-4" target="o858JBSHndgNJicVqMe8-5">
          <mxGeometry relative="1" as="geometry">
            <Array as="points">
              <mxPoint x="-150" y="660" />
              <mxPoint x="-150" y="580" />
              <mxPoint x="-260" y="580" />
            </Array>
          </mxGeometry>
        </mxCell>
        <mxCell id="o858JBSHndgNJicVqMe8-4" value="Parser" style="rounded=1;whiteSpace=wrap;html=1;strokeWidth=3;fontSize=18;fontStyle=1" parent="1" vertex="1">
          <mxGeometry x="50" y="640" width="120" height="80" as="geometry" />
        </mxCell>
        <mxCell id="o858JBSHndgNJicVqMe8-10" style="edgeStyle=orthogonalEdgeStyle;rounded=0;orthogonalLoop=1;jettySize=auto;html=1;strokeWidth=2;jumpStyle=arc;jumpSize=10;entryX=0;entryY=0.25;entryDx=0;entryDy=0;exitX=1;exitY=0.25;exitDx=0;exitDy=0;" parent="1" source="o858JBSHndgNJicVqMe8-5" target="o858JBSHndgNJicVqMe8-3" edge="1">
          <mxGeometry relative="1" as="geometry" />
        </mxCell>
        <mxCell id="o858JBSHndgNJicVqMe8-21" style="edgeStyle=orthogonalEdgeStyle;rounded=0;orthogonalLoop=1;jettySize=auto;html=1;exitX=0.25;exitY=0;exitDx=0;exitDy=0;entryX=0;entryY=0.75;entryDx=0;entryDy=0;strokeWidth=2;jumpStyle=arc;jumpSize=10;" parent="1" source="o858JBSHndgNJicVqMe8-5" target="o858JBSHndgNJicVqMe8-7" edge="1">
          <mxGeometry relative="1" as="geometry">
            <mxPoint x="-170" y="240" as="targetPoint" />
          </mxGeometry>
        </mxCell>
        <mxCell id="JRmdhpunygueFMFv0M05-17" style="edgeStyle=orthogonalEdgeStyle;rounded=0;orthogonalLoop=1;jettySize=auto;html=1;exitX=1;exitY=0.75;exitDx=0;exitDy=0;entryX=0.25;entryY=0;entryDx=0;entryDy=0;strokeWidth=2;" edge="1" parent="1" source="o858JBSHndgNJicVqMe8-5" target="o858JBSHndgNJicVqMe8-4">
          <mxGeometry relative="1" as="geometry">
            <Array as="points">
              <mxPoint x="-120" y="540" />
              <mxPoint x="-120" y="600" />
              <mxPoint x="80" y="600" />
            </Array>
          </mxGeometry>
        </mxCell>
        <mxCell id="o858JBSHndgNJicVqMe8-5" value="Poller" style="rounded=1;whiteSpace=wrap;html=1;strokeWidth=3;fontSize=18;fontStyle=1" parent="1" vertex="1">
          <mxGeometry x="-350" y="480" width="120" height="80" as="geometry" />
        </mxCell>
        <mxCell id="o858JBSHndgNJicVqMe8-22" style="edgeStyle=orthogonalEdgeStyle;rounded=0;orthogonalLoop=1;jettySize=auto;html=1;exitX=0.25;exitY=0;exitDx=0;exitDy=0;entryX=0;entryY=0.25;entryDx=0;entryDy=0;strokeWidth=2;jumpStyle=arc;jumpSize=10;" parent="1" source="o858JBSHndgNJicVqMe8-6" target="o858JBSHndgNJicVqMe8-7" edge="1">
          <mxGeometry relative="1" as="geometry">
            <mxPoint x="-170" y="200" as="targetPoint" />
            <Array as="points">
              <mxPoint x="-320" y="620" />
              <mxPoint x="-410" y="620" />
              <mxPoint x="-410" y="160" />
            </Array>
          </mxGeometry>
        </mxCell>
        <mxCell id="o858JBSHndgNJicVqMe8-6" value="Shower" style="rounded=1;whiteSpace=wrap;html=1;strokeWidth=3;fontSize=18;fontStyle=1" parent="1" vertex="1">
          <mxGeometry x="-350" y="640" width="120" height="80" as="geometry" />
        </mxCell>
        <mxCell id="o858JBSHndgNJicVqMe8-7" value="Writer" style="rounded=1;whiteSpace=wrap;html=1;strokeWidth=3;fontSize=18;fontStyle=1" parent="1" vertex="1">
          <mxGeometry x="-150" y="140" width="120" height="80" as="geometry" />
        </mxCell>
        <mxCell id="o858JBSHndgNJicVqMe8-13" style="edgeStyle=orthogonalEdgeStyle;rounded=0;orthogonalLoop=1;jettySize=auto;html=1;exitX=1;exitY=0.25;exitDx=0;exitDy=0;entryX=0.5;entryY=0;entryDx=0;entryDy=0;strokeWidth=2;jumpStyle=arc;jumpSize=10;" parent="1" source="o858JBSHndgNJicVqMe8-8" target="o858JBSHndgNJicVqMe8-4" edge="1">
          <mxGeometry relative="1" as="geometry">
            <Array as="points">
              <mxPoint x="210" y="320" />
              <mxPoint x="210" y="600" />
              <mxPoint x="110" y="600" />
            </Array>
          </mxGeometry>
        </mxCell>
        <mxCell id="o858JBSHndgNJicVqMe8-14" style="edgeStyle=orthogonalEdgeStyle;rounded=0;orthogonalLoop=1;jettySize=auto;html=1;exitX=1;exitY=0.75;exitDx=0;exitDy=0;entryX=0.25;entryY=0;entryDx=0;entryDy=0;strokeWidth=2;jumpStyle=arc;jumpSize=10;" parent="1" source="o858JBSHndgNJicVqMe8-8" target="o858JBSHndgNJicVqMe8-3" edge="1">
          <mxGeometry relative="1" as="geometry" />
        </mxCell>
        <mxCell id="o858JBSHndgNJicVqMe8-15" style="edgeStyle=orthogonalEdgeStyle;rounded=0;orthogonalLoop=1;jettySize=auto;html=1;exitX=0;exitY=0.25;exitDx=0;exitDy=0;entryX=0.75;entryY=0;entryDx=0;entryDy=0;strokeWidth=2;jumpStyle=arc;jumpSize=10;" parent="1" source="o858JBSHndgNJicVqMe8-8" target="o858JBSHndgNJicVqMe8-6" edge="1">
          <mxGeometry relative="1" as="geometry">
            <mxPoint x="-170" y="320" as="sourcePoint" />
            <Array as="points">
              <mxPoint x="-390" y="320" />
              <mxPoint x="-390" y="600" />
              <mxPoint x="-260" y="600" />
            </Array>
          </mxGeometry>
        </mxCell>
        <mxCell id="o858JBSHndgNJicVqMe8-16" style="edgeStyle=orthogonalEdgeStyle;rounded=0;orthogonalLoop=1;jettySize=auto;html=1;exitX=0;exitY=0.75;exitDx=0;exitDy=0;entryX=0.75;entryY=0;entryDx=0;entryDy=0;strokeWidth=2;jumpStyle=arc;jumpSize=10;" parent="1" source="o858JBSHndgNJicVqMe8-8" target="o858JBSHndgNJicVqMe8-5" edge="1">
          <mxGeometry relative="1" as="geometry">
            <mxPoint x="-170" y="360" as="sourcePoint" />
          </mxGeometry>
        </mxCell>
        <mxCell id="o858JBSHndgNJicVqMe8-8" value="Reader" style="rounded=1;whiteSpace=wrap;html=1;strokeWidth=3;fontSize=18;fontStyle=1" parent="1" vertex="1">
          <mxGeometry x="-150" y="300" width="120" height="80" as="geometry" />
        </mxCell>
        <mxCell id="o858JBSHndgNJicVqMe8-23" value="Raw Message to be sent" style="text;html=1;align=left;verticalAlign=bottom;whiteSpace=wrap;rounded=0;" parent="1" vertex="1">
          <mxGeometry x="250" y="500" width="140" height="20" as="geometry" />
        </mxCell>
        <mxCell id="o858JBSHndgNJicVqMe8-24" value="Received Raw Message" style="text;html=1;align=left;verticalAlign=bottom;whiteSpace=wrap;rounded=0;" parent="1" vertex="1">
          <mxGeometry x="200" y="660" width="190" height="20" as="geometry" />
        </mxCell>
        <mxCell id="o858JBSHndgNJicVqMe8-27" value="Human-Readable Message&lt;br&gt;&lt;div&gt;to be identified&lt;/div&gt;" style="text;html=1;align=left;verticalAlign=middle;whiteSpace=wrap;rounded=0;spacingLeft=3;" parent="1" vertex="1">
          <mxGeometry x="20" y="740" width="160" height="30" as="geometry" />
        </mxCell>
        <mxCell id="o858JBSHndgNJicVqMe8-28" value="Incoming Message Types to be saved" style="text;html=1;align=left;verticalAlign=bottom;whiteSpace=wrap;rounded=0;" parent="1" vertex="1">
          <mxGeometry x="-10" y="140" width="220" height="20" as="geometry" />
        </mxCell>
        <mxCell id="o858JBSHndgNJicVqMe8-29" value="Incoming Message Widget to be saved" style="text;html=1;align=left;verticalAlign=bottom;whiteSpace=wrap;rounded=0;" parent="1" vertex="1">
          <mxGeometry x="-390" y="140" width="220" height="20" as="geometry" />
        </mxCell>
        <mxCell id="o858JBSHndgNJicVqMe8-31" style="rounded=0;orthogonalLoop=1;jettySize=auto;html=1;exitX=0;exitY=0.5;exitDx=0;exitDy=0;endArrow=none;endFill=0;dashed=1;" parent="1" source="o858JBSHndgNJicVqMe8-30" edge="1">
          <mxGeometry relative="1" as="geometry">
            <mxPoint x="140" y="280" as="targetPoint" />
          </mxGeometry>
        </mxCell>
        <mxCell id="o858JBSHndgNJicVqMe8-30" value="Outgoing Message Types to be saved" style="text;html=1;align=left;verticalAlign=bottom;whiteSpace=wrap;rounded=0;" parent="1" vertex="1">
          <mxGeometry x="270" y="200" width="140" height="30" as="geometry" />
        </mxCell>
        <mxCell id="o858JBSHndgNJicVqMe8-33" style="rounded=0;orthogonalLoop=1;jettySize=auto;html=1;exitX=1;exitY=0.5;exitDx=0;exitDy=0;dashed=1;endArrow=none;endFill=0;" parent="1" source="o858JBSHndgNJicVqMe8-32" edge="1">
          <mxGeometry relative="1" as="geometry">
            <mxPoint x="-320" y="280" as="targetPoint" />
          </mxGeometry>
        </mxCell>
        <mxCell id="o858JBSHndgNJicVqMe8-32" value="Outgoing Message Widget to be saved" style="text;html=1;align=left;verticalAlign=bottom;whiteSpace=wrap;rounded=0;" parent="1" vertex="1">
          <mxGeometry x="-560" y="200" width="110" height="30" as="geometry" />
        </mxCell>
        <mxCell id="o858JBSHndgNJicVqMe8-36" value="Incoming Message Types to be loaded" style="text;html=1;align=left;verticalAlign=bottom;whiteSpace=wrap;rounded=0;" parent="1" vertex="1">
          <mxGeometry x="-10" y="290" width="130" height="30" as="geometry" />
        </mxCell>
        <mxCell id="o858JBSHndgNJicVqMe8-37" value="Incoming Message Widget to be loaded" style="text;html=1;align=left;verticalAlign=bottom;whiteSpace=wrap;rounded=0;" parent="1" vertex="1">
          <mxGeometry x="-300" y="290" width="130" height="30" as="geometry" />
        </mxCell>
        <mxCell id="o858JBSHndgNJicVqMe8-38" value="Outgoing Message Types to be loaded" style="text;html=1;align=right;verticalAlign=top;whiteSpace=wrap;rounded=0;spacingRight=3;" parent="1" vertex="1">
          <mxGeometry x="-10" y="360" width="90" height="50" as="geometry" />
        </mxCell>
        <mxCell id="o858JBSHndgNJicVqMe8-39" value="Outgoing Message Widget to be loaded" style="text;html=1;align=left;verticalAlign=top;whiteSpace=wrap;rounded=0;spacingLeft=3;" parent="1" vertex="1">
          <mxGeometry x="-260" y="360" width="90" height="70" as="geometry" />
        </mxCell>
        <mxCell id="JRmdhpunygueFMFv0M05-4" style="edgeStyle=orthogonalEdgeStyle;rounded=0;orthogonalLoop=1;jettySize=auto;html=1;entryX=1;entryY=0.5;entryDx=0;entryDy=0;strokeWidth=2;" edge="1" parent="1" source="JRmdhpunygueFMFv0M05-1" target="o858JBSHndgNJicVqMe8-6">
          <mxGeometry relative="1" as="geometry">
            <Array as="points">
              <mxPoint x="-190" y="790" />
              <mxPoint x="-190" y="680" />
            </Array>
          </mxGeometry>
        </mxCell>
        <mxCell id="JRmdhpunygueFMFv0M05-1" value="Registry" style="rounded=1;whiteSpace=wrap;html=1;strokeWidth=3;fontSize=18;fontStyle=1" vertex="1" parent="1">
          <mxGeometry x="-150" y="750" width="120" height="80" as="geometry" />
        </mxCell>
        <mxCell id="JRmdhpunygueFMFv0M05-5" value="Concrete Message&lt;br&gt;&lt;div&gt;to be shown&lt;br&gt;&lt;/div&gt;" style="text;html=1;align=right;verticalAlign=middle;whiteSpace=wrap;rounded=0;spacingLeft=3;spacingRight=3;" vertex="1" parent="1">
          <mxGeometry x="-300" y="740" width="110" height="30" as="geometry" />
        </mxCell>
        <mxCell id="JRmdhpunygueFMFv0M05-8" value="Concrete Message to be serialized" style="text;html=1;align=center;verticalAlign=bottom;whiteSpace=wrap;rounded=0;spacingLeft=3;" vertex="1" parent="1">
          <mxGeometry x="-210" y="480" width="240" height="20" as="geometry" />
        </mxCell>
        <mxCell id="JRmdhpunygueFMFv0M05-12" value="Raw Message&lt;br&gt;&lt;div&gt;to be shown&lt;br&gt;&lt;/div&gt;" style="text;html=1;align=left;verticalAlign=top;whiteSpace=wrap;rounded=0;spacingLeft=3;" vertex="1" parent="1">
          <mxGeometry x="-100" y="520" width="130" height="30" as="geometry" />
        </mxCell>
        <mxCell id="JRmdhpunygueFMFv0M05-15" value="Raw Message to be shown" style="text;html=1;align=left;verticalAlign=middle;whiteSpace=wrap;rounded=0;spacingLeft=3;" vertex="1" parent="1">
          <mxGeometry x="-160" y="680" width="160" height="20" as="geometry" />
        </mxCell>
        <mxCell id="JRmdhpunygueFMFv0M05-19" value="Raw Message to be parsed" style="text;html=1;align=left;verticalAlign=bottom;whiteSpace=wrap;rounded=0;spacingLeft=3;" vertex="1" parent="1">
          <mxGeometry x="-100" y="580" width="160" height="20" as="geometry" />
        </mxCell>
        <mxCell id="JRmdhpunygueFMFv0M05-20" value="Human-Readable Message&lt;br&gt;&lt;div&gt;to be shown&lt;/div&gt;" style="text;html=1;align=left;verticalAlign=bottom;whiteSpace=wrap;rounded=0;spacingLeft=3;" vertex="1" parent="1">
          <mxGeometry x="-130" y="630" width="160" height="30" as="geometry" />
        </mxCell>
      </root>
    </mxGraphModel>
  </diagram>
</mxfile>
